<mxfile host="app.diagrams.net" modified="2024-03-28T09:07:34.942Z" agent="Mozilla/5.0 (Windows NT 10.0; Win64; x64) AppleWebKit/537.36 (KHTML, like Gecko) Chrome/123.0.0.0 Safari/537.36" version="24.2.0" etag="OLPL4pb66h6wZGgpeW5a" type="github">
  <diagram name="Page-1" id="e-vIs-vpP7Vcly0AGnTn">
    <mxGraphModel>
      <root>
        <mxCell id="0" />
        <mxCell id="1" parent="0" />
      </root>
    </mxGraphModel>
  </diagram>
</mxfile>
